<mxfile host="app.diagrams.net" modified="2023-01-30T22:54:28.967Z" agent="5.0 (Windows NT 10.0; Win64; x64) AppleWebKit/537.36 (KHTML, like Gecko) Chrome/109.0.0.0 Safari/537.36" etag="S8qKUsXP-yYY7Mj5ZplM" version="20.8.13" type="github">
  <diagram name="Page-1" id="Rq6udh9_Ui0sGHlt8xGm">
    <mxGraphModel dx="936" dy="502" grid="1" gridSize="10" guides="1" tooltips="1" connect="1" arrows="1" fold="1" page="1" pageScale="1" pageWidth="850" pageHeight="1100" math="0" shadow="0">
      <root>
        <mxCell id="0" />
        <mxCell id="1" parent="0" />
        <mxCell id="ngpIoKC4TAN9gw4Bp9qX-3" value="" style="rounded=0;whiteSpace=wrap;html=1;" vertex="1" parent="1">
          <mxGeometry x="70" y="10" width="450" height="450" as="geometry" />
        </mxCell>
        <mxCell id="ngpIoKC4TAN9gw4Bp9qX-4" value="&lt;b&gt;AWS&lt;/b&gt;" style="text;html=1;strokeColor=none;fillColor=none;align=center;verticalAlign=middle;whiteSpace=wrap;rounded=0;" vertex="1" parent="1">
          <mxGeometry x="70" y="10" width="60" height="30" as="geometry" />
        </mxCell>
        <mxCell id="ngpIoKC4TAN9gw4Bp9qX-5" value="VPC" style="points=[[0,0],[0.25,0],[0.5,0],[0.75,0],[1,0],[1,0.25],[1,0.5],[1,0.75],[1,1],[0.75,1],[0.5,1],[0.25,1],[0,1],[0,0.75],[0,0.5],[0,0.25]];outlineConnect=0;gradientColor=none;html=1;whiteSpace=wrap;fontSize=12;fontStyle=0;container=1;pointerEvents=0;collapsible=0;recursiveResize=0;shape=mxgraph.aws4.group;grIcon=mxgraph.aws4.group_vpc;strokeColor=#248814;fillColor=none;verticalAlign=top;align=left;spacingLeft=30;fontColor=#AAB7B8;dashed=0;" vertex="1" parent="1">
          <mxGeometry x="90" y="40" width="410" height="400" as="geometry" />
        </mxCell>
        <mxCell id="ngpIoKC4TAN9gw4Bp9qX-6" value="&lt;b&gt;us-east-1&lt;/b&gt;&lt;a style=&quot;background-color: rgb(35, 47, 62); display: flex; align-items: center; font-size: 15px; line-height: 24px; min-height: auto; text-decoration-line: none; border: none; height: auto; font-weight: bold; outline: none; font-family: &amp;quot;Amazon Ember&amp;quot;, &amp;quot;Helvetica Neue&amp;quot;, Roboto, Arial, sans-serif; text-align: left; color: rgb(236, 114, 17) !important;&quot; class=&quot;_3w8zrwXEzPZYyUhCbqi-oU _3QcGxkeMRt1l8o-t4jgQVj&quot; tabindex=&quot;-1&quot; data-region-opt-in=&quot;false&quot; data-region-id=&quot;us-east-1&quot; target=&quot;_top&quot; href=&quot;https://us-east-1.console.aws.amazon.com/ec2/home?region=us-east-1#Instances:instanceState=running&quot;&gt;&lt;span style=&quot;pointer-events: none; display: flex; justify-content: space-between; width: 275.583px;&quot; class=&quot;_3uwe1mCjB6-mREyxIcpCQt&quot;&gt;&lt;/span&gt;&lt;/a&gt;&lt;a style=&quot;background-color: rgb(35, 47, 62); display: flex; align-items: center; font-size: 15px; line-height: 24px; min-height: auto; text-decoration-line: none; border: none; height: auto; font-weight: bold; outline: none; font-family: &amp;quot;Amazon Ember&amp;quot;, &amp;quot;Helvetica Neue&amp;quot;, Roboto, Arial, sans-serif; text-align: left; color: rgb(236, 114, 17) !important;&quot; class=&quot;_3w8zrwXEzPZYyUhCbqi-oU _3QcGxkeMRt1l8o-t4jgQVj&quot; tabindex=&quot;-1&quot; data-region-opt-in=&quot;false&quot; data-region-id=&quot;us-east-1&quot; target=&quot;_top&quot; href=&quot;https://us-east-1.console.aws.amazon.com/ec2/home?region=us-east-1#Instances:instanceState=running&quot;&gt;&lt;span style=&quot;pointer-events: none; display: flex; justify-content: space-between; width: 275.583px;&quot; class=&quot;_3uwe1mCjB6-mREyxIcpCQt&quot;&gt;&lt;/span&gt;&lt;/a&gt;" style="text;html=1;strokeColor=none;fillColor=none;align=center;verticalAlign=middle;whiteSpace=wrap;rounded=0;" vertex="1" parent="1">
          <mxGeometry x="150" y="40" width="80" height="30" as="geometry" />
        </mxCell>
        <mxCell id="ngpIoKC4TAN9gw4Bp9qX-7" value="" style="rounded=1;arcSize=10;dashed=1;strokeColor=#F59D56;fillColor=none;gradientColor=none;dashPattern=8 4;strokeWidth=2;" vertex="1" parent="1">
          <mxGeometry x="100" y="70" width="390" height="350" as="geometry" />
        </mxCell>
        <mxCell id="ngpIoKC4TAN9gw4Bp9qX-8" value="Availability Zone: us-east-1e" style="text;html=1;strokeColor=none;fillColor=none;align=center;verticalAlign=middle;whiteSpace=wrap;rounded=0;" vertex="1" parent="1">
          <mxGeometry x="190" y="390" width="220" height="30" as="geometry" />
        </mxCell>
        <mxCell id="ngpIoKC4TAN9gw4Bp9qX-9" value="Public subnet" style="points=[[0,0],[0.25,0],[0.5,0],[0.75,0],[1,0],[1,0.25],[1,0.5],[1,0.75],[1,1],[0.75,1],[0.5,1],[0.25,1],[0,1],[0,0.75],[0,0.5],[0,0.25]];outlineConnect=0;gradientColor=none;html=1;whiteSpace=wrap;fontSize=12;fontStyle=0;container=1;pointerEvents=0;collapsible=0;recursiveResize=0;shape=mxgraph.aws4.group;grIcon=mxgraph.aws4.group_security_group;grStroke=0;strokeColor=#248814;fillColor=#E9F3E6;verticalAlign=top;align=left;spacingLeft=30;fontColor=#248814;dashed=0;" vertex="1" parent="1">
          <mxGeometry x="130" y="90" width="270" height="130" as="geometry" />
        </mxCell>
        <mxCell id="ngpIoKC4TAN9gw4Bp9qX-15" value="" style="outlineConnect=0;dashed=0;verticalLabelPosition=bottom;verticalAlign=top;align=center;html=1;shape=mxgraph.aws3.ec2;fillColor=#F58534;gradientColor=none;" vertex="1" parent="ngpIoKC4TAN9gw4Bp9qX-9">
          <mxGeometry x="50" y="25" width="70" height="80" as="geometry" />
        </mxCell>
        <mxCell id="ngpIoKC4TAN9gw4Bp9qX-18" value="&lt;b style=&quot;&quot;&gt;Public EC2&lt;/b&gt;" style="text;html=1;strokeColor=none;fillColor=none;align=center;verticalAlign=middle;whiteSpace=wrap;rounded=0;" vertex="1" parent="ngpIoKC4TAN9gw4Bp9qX-9">
          <mxGeometry x="40" y="105" width="90" height="30" as="geometry" />
        </mxCell>
        <mxCell id="ngpIoKC4TAN9gw4Bp9qX-10" value="Private subnet" style="points=[[0,0],[0.25,0],[0.5,0],[0.75,0],[1,0],[1,0.25],[1,0.5],[1,0.75],[1,1],[0.75,1],[0.5,1],[0.25,1],[0,1],[0,0.75],[0,0.5],[0,0.25]];outlineConnect=0;gradientColor=none;html=1;whiteSpace=wrap;fontSize=12;fontStyle=0;container=1;pointerEvents=0;collapsible=0;recursiveResize=0;shape=mxgraph.aws4.group;grIcon=mxgraph.aws4.group_security_group;grStroke=0;strokeColor=#147EBA;fillColor=#E6F2F8;verticalAlign=top;align=left;spacingLeft=30;fontColor=#147EBA;dashed=0;" vertex="1" parent="1">
          <mxGeometry x="130" y="240" width="270" height="130" as="geometry" />
        </mxCell>
        <mxCell id="ngpIoKC4TAN9gw4Bp9qX-16" value="" style="outlineConnect=0;dashed=0;verticalLabelPosition=bottom;verticalAlign=top;align=center;html=1;shape=mxgraph.aws3.ec2;fillColor=#F58534;gradientColor=none;" vertex="1" parent="ngpIoKC4TAN9gw4Bp9qX-10">
          <mxGeometry x="51" y="23.5" width="69" height="83" as="geometry" />
        </mxCell>
        <mxCell id="ngpIoKC4TAN9gw4Bp9qX-22" value="&lt;b style=&quot;&quot;&gt;Private EC2&lt;/b&gt;" style="text;html=1;strokeColor=none;fillColor=none;align=center;verticalAlign=middle;whiteSpace=wrap;rounded=0;" vertex="1" parent="ngpIoKC4TAN9gw4Bp9qX-10">
          <mxGeometry x="40.5" y="100" width="90" height="30" as="geometry" />
        </mxCell>
        <mxCell id="ngpIoKC4TAN9gw4Bp9qX-36" value="" style="shape=partialRectangle;whiteSpace=wrap;html=1;top=0;left=0;fillColor=none;" vertex="1" parent="ngpIoKC4TAN9gw4Bp9qX-10">
          <mxGeometry x="120" y="20" width="190" height="60" as="geometry" />
        </mxCell>
        <mxCell id="ngpIoKC4TAN9gw4Bp9qX-11" value="" style="outlineConnect=0;dashed=0;verticalLabelPosition=bottom;verticalAlign=top;align=center;html=1;shape=mxgraph.aws3.vpc_nat_gateway;fillColor=#F58536;gradientColor=none;" vertex="1" parent="1">
          <mxGeometry x="340" y="156" width="39" height="42" as="geometry" />
        </mxCell>
        <mxCell id="ngpIoKC4TAN9gw4Bp9qX-23" value="" style="outlineConnect=0;dashed=0;verticalLabelPosition=bottom;verticalAlign=top;align=center;html=1;shape=mxgraph.aws3.router;fillColor=#F58536;gradientColor=none;" vertex="1" parent="1">
          <mxGeometry x="410" y="210" width="50" height="48" as="geometry" />
        </mxCell>
        <mxCell id="ngpIoKC4TAN9gw4Bp9qX-24" value="" style="outlineConnect=0;dashed=0;verticalLabelPosition=bottom;verticalAlign=top;align=center;html=1;shape=mxgraph.aws3.internet_gateway;fillColor=#F58534;gradientColor=none;" vertex="1" parent="1">
          <mxGeometry x="510" y="198" width="60" height="60" as="geometry" />
        </mxCell>
        <mxCell id="ngpIoKC4TAN9gw4Bp9qX-25" value="&lt;div style=&quot;color: rgb(212, 212, 212); background-color: rgb(30, 30, 30); font-family: Consolas, &amp;quot;Courier New&amp;quot;, monospace; font-size: 14px; line-height: 19px;&quot;&gt;10.0.1.0/24&lt;/div&gt;" style="text;html=1;strokeColor=none;fillColor=none;align=center;verticalAlign=middle;whiteSpace=wrap;rounded=0;" vertex="1" parent="1">
          <mxGeometry x="260" y="90" width="70" height="30" as="geometry" />
        </mxCell>
        <mxCell id="ngpIoKC4TAN9gw4Bp9qX-26" value="&lt;div style=&quot;color: rgb(212, 212, 212); background-color: rgb(30, 30, 30); font-family: Consolas, &amp;quot;Courier New&amp;quot;, monospace; font-size: 14px; line-height: 19px;&quot;&gt;10.0.2.0/24&lt;/div&gt;" style="text;html=1;strokeColor=none;fillColor=none;align=center;verticalAlign=middle;whiteSpace=wrap;rounded=0;" vertex="1" parent="1">
          <mxGeometry x="250" y="240" width="90" height="30" as="geometry" />
        </mxCell>
        <mxCell id="ngpIoKC4TAN9gw4Bp9qX-29" value="&lt;div style=&quot;color: rgb(212, 212, 212); background-color: rgb(30, 30, 30); font-family: Consolas, &amp;quot;Courier New&amp;quot;, monospace; font-size: 14px; line-height: 19px;&quot;&gt;10.0.0.0/16&lt;/div&gt;" style="text;html=1;strokeColor=none;fillColor=none;align=center;verticalAlign=middle;whiteSpace=wrap;rounded=0;" vertex="1" parent="1">
          <mxGeometry x="250" y="40" width="90" height="30" as="geometry" />
        </mxCell>
        <mxCell id="ngpIoKC4TAN9gw4Bp9qX-33" value="" style="endArrow=none;html=1;rounded=0;exitX=1;exitY=0.5;exitDx=0;exitDy=0;exitPerimeter=0;" edge="1" parent="1" source="ngpIoKC4TAN9gw4Bp9qX-11">
          <mxGeometry width="50" height="50" relative="1" as="geometry">
            <mxPoint x="380" y="250" as="sourcePoint" />
            <mxPoint x="410" y="180" as="targetPoint" />
          </mxGeometry>
        </mxCell>
        <mxCell id="ngpIoKC4TAN9gw4Bp9qX-37" value="" style="shape=partialRectangle;whiteSpace=wrap;html=1;bottom=0;right=0;fillColor=none;direction=south;" vertex="1" parent="1">
          <mxGeometry x="260" y="130" width="180" height="80" as="geometry" />
        </mxCell>
        <mxCell id="ngpIoKC4TAN9gw4Bp9qX-38" value="" style="shape=partialRectangle;whiteSpace=wrap;html=1;bottom=0;right=0;fillColor=none;direction=south;" vertex="1" parent="1">
          <mxGeometry x="380" y="180" width="59" height="115" as="geometry" />
        </mxCell>
        <mxCell id="ngpIoKC4TAN9gw4Bp9qX-39" value="" style="endArrow=none;html=1;rounded=0;exitX=1;exitY=0.5;exitDx=0;exitDy=0;exitPerimeter=0;" edge="1" parent="1" source="ngpIoKC4TAN9gw4Bp9qX-23" target="ngpIoKC4TAN9gw4Bp9qX-24">
          <mxGeometry width="50" height="50" relative="1" as="geometry">
            <mxPoint x="460" y="240" as="sourcePoint" />
            <mxPoint x="430" y="200" as="targetPoint" />
          </mxGeometry>
        </mxCell>
        <mxCell id="ngpIoKC4TAN9gw4Bp9qX-40" value="" style="ellipse;shape=cloud;whiteSpace=wrap;html=1;" vertex="1" parent="1">
          <mxGeometry x="640" y="178" width="120" height="80" as="geometry" />
        </mxCell>
        <mxCell id="ngpIoKC4TAN9gw4Bp9qX-41" value="" style="endArrow=none;html=1;rounded=0;" edge="1" parent="1" source="ngpIoKC4TAN9gw4Bp9qX-24">
          <mxGeometry width="50" height="50" relative="1" as="geometry">
            <mxPoint x="380" y="250" as="sourcePoint" />
            <mxPoint x="660" y="220" as="targetPoint" />
            <Array as="points">
              <mxPoint x="660" y="220" />
            </Array>
          </mxGeometry>
        </mxCell>
        <mxCell id="ngpIoKC4TAN9gw4Bp9qX-69" value="Custom Route Table" style="swimlane;fontStyle=0;childLayout=stackLayout;horizontal=1;startSize=26;horizontalStack=0;resizeParent=1;resizeParentMax=0;resizeLast=0;collapsible=1;marginBottom=0;align=center;fontSize=14;" vertex="1" parent="1">
          <mxGeometry x="590" y="30" width="160" height="86" as="geometry" />
        </mxCell>
        <mxCell id="ngpIoKC4TAN9gw4Bp9qX-70" value="10.0.0.0./16        local" style="text;strokeColor=none;fillColor=none;spacingLeft=4;spacingRight=4;overflow=hidden;rotatable=0;points=[[0,0.5],[1,0.5]];portConstraint=eastwest;fontSize=12;" vertex="1" parent="ngpIoKC4TAN9gw4Bp9qX-69">
          <mxGeometry y="26" width="160" height="30" as="geometry" />
        </mxCell>
        <mxCell id="ngpIoKC4TAN9gw4Bp9qX-71" value="0.0.0.0/0             IGW" style="text;strokeColor=none;fillColor=none;spacingLeft=4;spacingRight=4;overflow=hidden;rotatable=0;points=[[0,0.5],[1,0.5]];portConstraint=eastwest;fontSize=12;" vertex="1" parent="ngpIoKC4TAN9gw4Bp9qX-69">
          <mxGeometry y="56" width="160" height="30" as="geometry" />
        </mxCell>
        <mxCell id="ngpIoKC4TAN9gw4Bp9qX-74" value="Main Route Table" style="swimlane;fontStyle=0;childLayout=stackLayout;horizontal=1;startSize=26;horizontalStack=0;resizeParent=1;resizeParentMax=0;resizeLast=0;collapsible=1;marginBottom=0;align=center;fontSize=14;" vertex="1" parent="1">
          <mxGeometry x="600" y="304" width="160" height="86" as="geometry" />
        </mxCell>
        <mxCell id="ngpIoKC4TAN9gw4Bp9qX-75" value="10.0.0.0./16        local" style="text;strokeColor=none;fillColor=none;spacingLeft=4;spacingRight=4;overflow=hidden;rotatable=0;points=[[0,0.5],[1,0.5]];portConstraint=eastwest;fontSize=12;" vertex="1" parent="ngpIoKC4TAN9gw4Bp9qX-74">
          <mxGeometry y="26" width="160" height="30" as="geometry" />
        </mxCell>
        <mxCell id="ngpIoKC4TAN9gw4Bp9qX-76" value="0.0.0.0/0             NAT" style="text;strokeColor=none;fillColor=none;spacingLeft=4;spacingRight=4;overflow=hidden;rotatable=0;points=[[0,0.5],[1,0.5]];portConstraint=eastwest;fontSize=12;" vertex="1" parent="ngpIoKC4TAN9gw4Bp9qX-74">
          <mxGeometry y="56" width="160" height="30" as="geometry" />
        </mxCell>
        <mxCell id="ngpIoKC4TAN9gw4Bp9qX-77" value="" style="endArrow=none;dashed=1;html=1;rounded=0;entryX=0;entryY=-0.089;entryDx=0;entryDy=0;entryPerimeter=0;exitX=0.769;exitY=0.143;exitDx=0;exitDy=0;exitPerimeter=0;" edge="1" parent="1" source="ngpIoKC4TAN9gw4Bp9qX-7" target="ngpIoKC4TAN9gw4Bp9qX-71">
          <mxGeometry width="50" height="50" relative="1" as="geometry">
            <mxPoint x="380" y="210" as="sourcePoint" />
            <mxPoint x="430" y="160" as="targetPoint" />
            <Array as="points">
              <mxPoint x="540" y="80" />
            </Array>
          </mxGeometry>
        </mxCell>
        <mxCell id="ngpIoKC4TAN9gw4Bp9qX-78" value="" style="endArrow=none;dashed=1;html=1;rounded=0;entryX=0;entryY=0.5;entryDx=0;entryDy=0;" edge="1" parent="1" target="ngpIoKC4TAN9gw4Bp9qX-75">
          <mxGeometry width="50" height="50" relative="1" as="geometry">
            <mxPoint x="410" y="350" as="sourcePoint" />
            <mxPoint x="430" y="160" as="targetPoint" />
            <Array as="points">
              <mxPoint x="400" y="350" />
            </Array>
          </mxGeometry>
        </mxCell>
      </root>
    </mxGraphModel>
  </diagram>
</mxfile>
